<?xml version="1.0" encoding="UTF-8" standalone="no"?>
<!-- Created with Inkscape (http://www.inkscape.org/) -->

<svg
   width="1200mm"
   height="800.375mm"
   viewBox="0 0 1200 800.375"
   version="1.1"
   id="svg1"
   xml:space="preserve"
   inkscape:version="1.4.2 (f4327f4, 2025-05-13)"
   sodipodi:docname="jatek.svg"
   xmlns:inkscape="http://www.inkscape.org/namespaces/inkscape"
   xmlns:sodipodi="http://sodipodi.sourceforge.net/DTD/sodipodi-0.dtd"
   xmlns:xlink="http://www.w3.org/1999/xlink"
   xmlns="http://www.w3.org/2000/svg"
   xmlns:svg="http://www.w3.org/2000/svg"><sodipodi:namedview
     id="namedview1"
     pagecolor="#ffffff"
     bordercolor="#000000"
     borderopacity="0.25"
     inkscape:showpageshadow="2"
     inkscape:pageopacity="0.0"
     inkscape:pagecheckerboard="0"
     inkscape:deskcolor="#d1d1d1"
     inkscape:document-units="mm"
     inkscape:zoom="0.71891835"
     inkscape:cx="1259.5311"
     inkscape:cy="1330.471"
     inkscape:window-width="1920"
     inkscape:window-height="1009"
     inkscape:window-x="-8"
     inkscape:window-y="-8"
     inkscape:window-maximized="1"
     inkscape:current-layer="layer1"><inkscape:page
       x="0"
       y="0"
       width="1200"
       height="800.375"
       id="page2"
       margin="0"
       bleed="0" /></sodipodi:namedview><defs
     id="defs1"><linearGradient
       id="linearGradient57"
       inkscape:collect="always"><stop
         style="stop-color:#4ec72f;stop-opacity:1;"
         offset="0"
         id="stop57" /><stop
         style="stop-color:#19b14e;stop-opacity:1;"
         offset="1"
         id="stop58" /></linearGradient><linearGradient
       inkscape:collect="always"
       xlink:href="#linearGradient57"
       id="linearGradient160"
       gradientUnits="userSpaceOnUse"
       x1="3305.3706"
       y1="756.61121"
       x2="3523.0969"
       y2="756.61121" /><linearGradient
       inkscape:collect="always"
       xlink:href="#linearGradient57"
       id="linearGradient58"
       x1="3305.3706"
       y1="756.61121"
       x2="3495.228"
       y2="756.61121"
       gradientUnits="userSpaceOnUse" /></defs><g
     inkscape:label="Réteg 1"
     inkscape:groupmode="layer"
     id="layer1"
     transform="translate(619.80884,256.92175)"><g
       id="g934"
       transform="matrix(3.9999928,0,0,4.001875,1814.3016,-381.03171)"
       inkscape:label="felso_ikonok"
       style="display:inline"><g
         id="g6"
         transform="matrix(0.31580838,0,0,0.31565985,-540.76682,7.0958689)"
         inkscape:label="jatek"><g
           id="g792"
           style="fill:url(#linearGradient160)"
           transform="matrix(0.65763706,0,0,0.65451106,-2150.9886,-119.3431)"
           inkscape:label="zold"><rect
             style="opacity:1;fill:url(#linearGradient58);stroke-width:0.821937"
             id="rect57"
             width="189.85736"
             height="45.608433"
             x="3305.3706"
             y="733.80701"
             transform="translate(9.0314404e-5)"
             ry="3.02371" /></g><g
           id="g58"
           transform="translate(0,0.66252372)"><path
             id="path793"
             style="fill:#ffffff;stroke-width:0.368699"
             inkscape:transform-center-x="-2.0883395"
             inkscape:transform-center-y="1.1249529e-05"
             d="m 58.034268,380.98043 v -5.77564 -5.77564 L 63.06,372.31696 68.085736,375.20479 63.06,378.0926 Z" /><path
             d="m 79.061074,371.13308 v 5.46535 q 0,0.88305 -0.254714,1.50356 -0.254713,0.62053 -0.737328,0.96659 -0.482616,0.33412 -1.059073,0.47731 -0.576457,0.15514 -1.313787,0.15514 -0.978636,0 -1.662341,-0.19093 l 0.147466,-1.45584 q 0.375368,0.0716 0.96523,0.0716 0.951825,0 1.434441,-0.34605 0.482614,-0.34607 0.482614,-1.22911 v -5.41763 z m 6.341038,-0.79951 h -1.112697 l 0.844578,-1.68256 h 2.144957 z m -2.332641,7.52976 -0.630082,1.6229 h -2.051114 l 3.512367,-8.35315 h 1.984085 l 3.619615,8.35315 h -2.131551 l -0.643487,-1.6229 z m 1.809808,-4.73742 -1.273569,3.34125 h 2.587354 z m 11.609563,-0.48926 h -2.842069 v 6.84958 H 91.6895 v -6.84958 h -2.855474 v -1.50357 h 7.654816 z m 5.040648,-2.30308 h -1.11269 l 0.84457,-1.68256 h 2.14496 z m -1.568495,2.29115 v 1.88543 h 3.753675 v 1.50356 h -3.753675 v 1.95703 h 4.356945 v 1.51549 h -6.327624 v -8.35315 h 6.327624 v 1.49164 z m 11.690015,6.86151 -3.00294,-3.28159 -0.63008,0.60859 v 2.673 h -2.0243 v -8.35315 h 2.0243 v 3.46059 l 3.31128,-3.46059 h 2.60076 l -3.90115,3.74699 4.16927,4.60616 z"
             id="text817"
             style="font-weight:bold;font-size:12.6481px;line-height:28.4522px;font-family:'Motiva Sans';-inkscape-font-specification:'Motiva Sans, Bold';text-align:center;text-anchor:middle;fill:#ffffff;stroke-width:0.644722"
             inkscape:label="jatek"
             aria-label="JÁTÉK" /></g></g></g></g></svg>
